<svg width="3544" height="524" viewBox="0 0 3544 524" fill="none" xmlns="http://www.w3.org/2000/svg">
<path d="M370.551 393.717V13.2478C370.551 5.92293 376.469 0 383.789 0H427.67C434.955 0 440.909 5.92293 440.909 13.2478V393.717C440.909 401.042 434.99 406.965 427.67 406.965H383.789C376.469 406.965 370.551 401.042 370.551 393.717Z" fill="#F7F7F9"/>
<path d="M493.475 393.717V13.2478C493.475 5.92293 499.394 0 506.714 0H550.595C557.88 0 563.833 5.92293 563.833 13.2478V393.717C563.833 401.042 557.915 406.965 550.595 406.965H506.714C499.394 406.965 493.475 401.042 493.475 393.717Z" fill="#F7F7F9"/>
<path d="M675.236 94.4664C682.521 94.4664 688.474 100.389 688.474 107.714V273.066C688.474 309.129 717.647 338.288 751.97 338.288C788.006 338.288 817.181 309.093 817.181 273.066V107.679C817.181 100.389 823.098 94.4309 830.416 94.4309H874.299C881.58 94.4309 887.535 100.355 887.535 107.679V271.313C887.535 346.875 827.512 406.945 752 406.945C678.248 406.945 616.471 346.875 616.471 271.313V107.679C616.471 100.389 622.389 94.4309 629.709 94.4309H675.236V94.4664Z" fill="#F7F7F9"/>
<path d="M164.144 87.6676C74.3849 84.8293 0 158.007 0 247.272C0 334.854 72.2838 406.945 159.802 406.945C190.48 406.945 222.42 397.833 245.114 382.413C246.865 381.221 249.246 382.447 249.246 384.585V393.698C249.246 401.022 255.165 406.945 262.484 406.945H304.615C311.934 406.945 317.853 401.022 317.818 393.698V248.148C317.783 162.107 250.086 90.3662 164.144 87.6676ZM160.012 336.571C110.247 336.571 70.7779 297.074 70.7779 247.272C70.7779 197.47 110.247 157.972 160.012 157.972C209.777 157.972 249.211 197.47 249.211 247.272C249.211 297.074 209.777 336.571 160.012 336.571Z" fill="#F7F7F9"/>
<path d="M954.174 407.045C978.758 407.045 999.841 387.698 999.841 361.344C999.841 336.74 978.758 317.395 954.174 317.395C929.591 317.395 908.507 336.74 908.507 361.344C908.507 387.698 929.591 407.045 954.174 407.045Z" fill="#F7F7F9"/>
<path d="M3434.78 412.9C3405.86 412.9 3380.45 405.669 3358.56 391.206C3336.67 376.742 3320.64 357.002 3310.48 331.985L3340.97 317.913C3350.74 337.067 3363.84 352.312 3380.25 363.648C3396.67 374.593 3414.85 380.065 3434.78 380.065C3455.11 380.065 3472.11 375.179 3485.79 365.407C3499.87 355.243 3506.9 341.953 3506.9 325.535C3506.9 315.372 3504.17 306.772 3498.69 299.736C3493.61 292.7 3486.97 287.032 3478.76 282.732C3470.55 278.042 3461.75 274.524 3452.37 272.178L3404.29 258.692C3377.32 251.265 3357.39 240.32 3344.49 225.857C3331.98 211.394 3325.72 194.39 3325.72 174.845C3325.72 157.255 3330.22 142.01 3339.21 129.111C3348.2 115.82 3360.32 105.657 3375.56 98.621C3390.81 91.194 3407.62 87.4805 3425.99 87.4805C3451.79 87.4805 3475.24 94.1257 3496.35 107.416C3517.46 120.707 3532.31 138.688 3540.91 161.36L3509.25 176.018C3501.04 158.428 3489.51 144.747 3474.65 134.974C3459.8 124.811 3443.38 119.729 3425.4 119.729C3406.64 119.729 3391.39 124.811 3379.67 134.974C3367.94 144.747 3362.08 157.255 3362.08 172.5C3362.08 182.272 3364.42 190.481 3369.11 197.126C3373.8 203.381 3379.86 208.658 3387.29 212.958C3395.11 216.867 3403.12 219.994 3411.33 222.339L3463.51 237.584C3488.92 244.62 3508.47 255.761 3522.15 271.005C3536.22 286.25 3543.26 304.232 3543.26 324.949C3543.26 341.757 3538.57 356.807 3529.18 370.097C3519.8 383.388 3506.9 393.942 3490.49 401.76C3474.07 409.187 3455.5 412.9 3434.78 412.9Z" fill="#F7F7F9"/>
<path d="M3112.16 412.9C3092.61 412.9 3075.22 409.187 3059.97 401.76C3044.73 394.333 3032.61 383.974 3023.62 370.684C3014.63 357.393 3010.13 342.148 3010.13 324.949C3010.13 309.704 3013.46 295.436 3020.1 282.146C3026.75 268.856 3037.5 257.52 3052.35 248.138C3067.21 238.366 3086.55 231.525 3110.4 227.616L3236.46 206.508V239.343L3119.78 258.692C3093.2 262.992 3074.44 271.005 3063.49 282.732C3052.55 294.459 3047.07 308.14 3047.07 323.776C3047.07 340.585 3053.33 354.266 3065.84 364.82C3078.74 375.374 3094.96 380.651 3114.5 380.651C3137.18 380.651 3156.92 375.57 3173.72 365.407C3190.53 354.852 3203.63 341.171 3213.01 324.363C3222.39 307.163 3227.08 288.4 3227.08 268.074V190.677C3227.08 169.959 3219.65 153.151 3204.8 140.251C3189.95 127.352 3170.6 120.902 3146.75 120.902C3127.21 120.902 3109.62 125.788 3093.98 135.561C3078.35 145.333 3066.42 158.037 3058.21 173.673L3026.55 156.669C3032.42 144.16 3041.41 132.629 3053.52 122.075C3065.64 111.52 3079.71 103.116 3095.74 96.862C3111.77 90.6076 3128.77 87.4805 3146.75 87.4805C3169.42 87.4805 3189.36 91.9758 3206.56 100.966C3224.15 109.566 3237.83 121.684 3247.6 137.32C3257.38 152.564 3262.26 170.35 3262.26 190.677V405.864H3227.08V340.78L3231.19 343.712C3226.1 356.221 3217.7 367.752 3205.97 378.306C3194.25 388.469 3180.37 396.874 3164.34 403.519C3148.71 409.773 3131.31 412.9 3112.16 412.9Z" fill="#F7F7F9"/>
<path d="M2862.42 412.9C2833.49 412.9 2808.08 405.669 2786.19 391.206C2764.3 376.742 2748.27 357.002 2738.11 331.985L2768.6 317.913C2778.37 337.067 2791.47 352.312 2807.89 363.648C2824.3 374.593 2842.48 380.065 2862.42 380.065C2882.74 380.065 2899.75 375.179 2913.43 365.407C2927.5 355.243 2934.54 341.953 2934.54 325.535C2934.54 315.372 2931.8 306.772 2926.33 299.736C2921.25 292.7 2914.6 287.032 2906.39 282.732C2898.18 278.042 2889.39 274.524 2880.01 272.178L2831.93 258.692C2804.95 251.265 2785.02 240.32 2772.12 225.857C2759.61 211.394 2753.36 194.39 2753.36 174.845C2753.36 157.255 2757.85 142.01 2766.84 129.111C2775.83 115.82 2787.95 105.657 2803.2 98.621C2818.44 91.194 2835.25 87.4805 2853.62 87.4805C2879.42 87.4805 2902.87 94.1257 2923.98 107.416C2945.09 120.707 2959.94 138.688 2968.54 161.36L2936.88 176.018C2928.67 158.428 2917.14 144.747 2902.29 134.974C2887.43 124.811 2871.02 119.729 2853.03 119.729C2834.27 119.729 2819.03 124.811 2807.3 134.974C2795.57 144.747 2789.71 157.255 2789.71 172.5C2789.71 182.272 2792.05 190.481 2796.75 197.126C2801.44 203.381 2807.5 208.658 2814.92 212.958C2822.74 216.867 2830.75 219.994 2838.96 222.339L2891.15 237.584C2916.55 244.62 2936.1 255.761 2949.78 271.005C2963.85 286.25 2970.89 304.232 2970.89 324.949C2970.89 341.757 2966.2 356.807 2956.82 370.097C2947.44 383.388 2934.54 393.942 2918.12 401.76C2901.7 409.187 2883.13 412.9 2862.42 412.9Z" fill="#F7F7F9"/>
<path d="M2565.08 412.9C2535.76 412.9 2509.38 405.864 2485.92 391.792C2462.47 377.329 2443.9 357.784 2430.22 333.158C2416.54 308.14 2409.7 280.191 2409.7 249.311C2409.7 218.43 2416.34 190.872 2429.63 166.637C2442.93 142.01 2460.91 122.661 2483.58 108.589C2506.25 94.5166 2531.66 87.4805 2559.8 87.4805C2581.3 87.4805 2600.65 91.3894 2617.85 99.2073C2635.44 107.025 2650.49 117.97 2663 132.042C2675.9 145.724 2685.67 161.555 2692.32 179.536C2699.35 197.126 2702.87 215.694 2702.87 235.239C2702.87 239.148 2702.67 243.252 2702.28 247.552C2701.89 251.852 2701.31 256.347 2700.52 261.038H2430.22V228.789H2680.59L2664.76 241.102C2667.1 218.43 2663.78 198.104 2654.79 180.123C2645.8 161.75 2632.9 147.287 2616.09 136.733C2599.67 125.788 2580.91 120.316 2559.8 120.316C2538.69 120.316 2519.35 125.984 2501.75 137.32C2484.16 148.265 2470.29 163.509 2460.12 183.054C2449.96 202.208 2445.27 224.489 2446.05 249.897C2445.27 275.305 2450.16 297.782 2460.71 317.327C2471.27 336.871 2485.73 352.312 2504.1 363.648C2522.47 374.593 2542.8 380.065 2565.08 380.065C2587.75 380.065 2607.49 374.788 2624.3 364.234C2641.11 353.289 2654.79 338.826 2665.34 320.845L2695.25 336.676C2688.21 351.139 2678.24 364.234 2665.34 375.961C2652.44 387.297 2637.4 396.287 2620.2 402.932C2603.39 409.578 2585.02 412.9 2565.08 412.9Z" fill="#F7F7F9"/>
<path d="M2253.22 405.86V94.5126H2288.41V152.56L2281.96 147.283C2288.6 129.693 2299.94 115.816 2315.96 105.653C2332.38 95.4898 2351.73 90.4082 2374.01 90.4082H2393.95V125.589H2369.91C2344.5 125.589 2324.56 133.798 2310.1 150.215C2295.64 166.242 2288.41 187.936 2288.41 215.299V405.86H2253.22Z" fill="#F7F7F9"/>
<path d="M1889.17 523.133V94.5166H1924.35V173.086L1918.49 161.946C1930.21 139.274 1947.02 121.293 1968.91 108.002C1991.19 94.3211 2016.6 87.4805 2045.14 87.4805C2074.45 87.4805 2100.64 94.5166 2123.71 108.589C2146.77 122.661 2164.95 142.01 2178.24 166.637C2191.53 191.263 2198.17 219.212 2198.17 250.484C2198.17 280.973 2191.53 308.531 2178.24 333.158C2164.95 357.784 2146.77 377.329 2123.71 391.792C2100.64 405.864 2074.45 412.9 2045.14 412.9C2016.6 412.9 1991 406.06 1968.33 392.378C1946.05 378.306 1929.43 359.152 1918.49 334.917L1924.35 326.708V523.133H1889.17ZM2043.96 377.72C2066.25 377.72 2086.18 372.247 2103.77 361.302C2121.36 349.966 2135.24 334.721 2145.4 315.568C2155.56 296.023 2160.65 274.133 2160.65 249.897C2160.65 225.662 2155.56 203.967 2145.4 184.813C2135.24 165.659 2121.36 150.61 2103.77 139.665C2086.18 128.329 2066.25 122.661 2043.96 122.661C2021.68 122.661 2001.55 128.329 1983.57 139.665C1965.59 150.61 1951.32 165.659 1940.77 184.813C1930.21 203.967 1924.94 225.662 1924.94 249.897C1924.94 274.133 1930.21 296.023 1940.77 315.568C1951.32 334.721 1965.39 349.966 1982.98 361.302C2000.97 372.247 2021.29 377.72 2043.96 377.72Z" fill="#F7F7F9"/>
<path d="M1385.4 405.864V94.5166H1420.58V157.255L1414.13 148.46C1421.95 129.697 1434.46 114.843 1451.66 103.898C1469.25 92.953 1488.79 87.4805 1510.29 87.4805C1534.52 87.4805 1556.61 94.5166 1576.55 108.589C1596.48 122.27 1610.36 140.642 1618.18 163.705L1607.04 164.291C1613.68 140.447 1626.78 121.684 1646.32 108.002C1666.26 94.3211 1688.34 87.4805 1712.58 87.4805C1733.29 87.4805 1752.25 92.3667 1769.45 102.139C1787.04 111.911 1801.11 125.593 1811.67 143.183C1822.61 160.382 1828.09 180.123 1828.09 202.404V405.864H1792.91V212.371C1792.91 193.608 1789 177.582 1781.18 164.291C1773.75 150.61 1763.78 140.251 1751.28 133.215C1738.77 125.788 1724.69 122.075 1709.06 122.075C1692.25 122.075 1677.4 126.179 1664.5 134.388C1651.99 142.597 1642.02 153.933 1634.59 168.396C1627.56 182.859 1624.04 199.472 1624.04 218.235V405.864H1588.86V212.371C1588.86 193.608 1585.15 177.582 1577.72 164.291C1570.29 150.61 1560.13 140.251 1547.23 133.215C1534.72 125.788 1520.65 122.075 1505.01 122.075C1488.2 122.075 1473.35 126.179 1460.45 134.388C1447.94 142.597 1438.17 153.933 1431.13 168.396C1424.1 182.859 1420.58 199.472 1420.58 218.235V405.864H1385.4Z" fill="#F7F7F9"/>
<path d="M1193.03 412.9C1163.71 412.9 1137.32 405.864 1113.87 391.792C1090.42 377.329 1071.85 357.784 1058.17 333.158C1044.49 308.14 1037.64 280.191 1037.64 249.311C1037.64 218.43 1044.29 190.872 1057.58 166.637C1070.87 142.01 1088.85 122.661 1111.52 108.589C1134.2 94.5166 1159.6 87.4805 1187.75 87.4805C1209.25 87.4805 1228.6 91.3894 1245.8 99.2073C1263.39 107.025 1278.44 117.97 1290.94 132.042C1303.84 145.724 1313.62 161.555 1320.26 179.536C1327.3 197.126 1330.82 215.694 1330.82 235.239C1330.82 239.148 1330.62 243.252 1330.23 247.552C1329.84 251.852 1329.25 256.347 1328.47 261.038H1058.17V228.789H1308.53L1292.7 241.102C1295.05 218.43 1291.73 198.104 1282.74 180.123C1273.74 161.75 1260.85 147.287 1244.04 136.733C1227.62 125.788 1208.86 120.316 1187.75 120.316C1166.64 120.316 1147.29 125.984 1129.7 137.32C1112.11 148.265 1098.23 163.509 1088.07 183.054C1077.91 202.208 1073.22 224.489 1074 249.897C1073.22 275.305 1078.1 297.782 1088.66 317.327C1099.21 336.871 1113.67 352.312 1132.05 363.648C1150.42 374.593 1170.74 380.065 1193.03 380.065C1215.7 380.065 1235.44 374.788 1252.25 364.234C1269.05 353.289 1282.74 338.826 1293.29 320.845L1323.19 336.676C1316.16 351.139 1306.19 364.234 1293.29 375.961C1280.39 387.297 1265.34 396.287 1248.14 402.932C1231.33 409.578 1212.96 412.9 1193.03 412.9Z" fill="#F7F7F9"/>
</svg>
