<svg width="2506" height="978" viewBox="0 0 2506 978" fill="none" xmlns="http://www.w3.org/2000/svg">
<path d="M1876.55 393.717V13.2478C1876.55 5.92293 1882.47 0 1889.79 0H1933.67C1940.95 0 1946.91 5.92293 1946.91 13.2478V393.717C1946.91 401.042 1940.99 406.965 1933.67 406.965H1889.79C1882.47 406.965 1876.55 401.042 1876.55 393.717Z" fill="#F7F7F9"/>
<path d="M1999.48 393.717V13.2478C1999.48 5.92293 2005.39 0 2012.71 0H2056.6C2063.88 0 2069.83 5.92293 2069.83 13.2478V393.717C2069.83 401.042 2063.91 406.965 2056.6 406.965H2012.71C2005.39 406.965 1999.48 401.042 1999.48 393.717Z" fill="#F7F7F9"/>
<path d="M2181.24 94.4664C2188.52 94.4664 2194.47 100.389 2194.47 107.714V273.066C2194.47 309.129 2223.65 338.288 2257.97 338.288C2294.01 338.288 2323.18 309.093 2323.18 273.066V107.679C2323.18 100.389 2329.1 94.4309 2336.42 94.4309H2380.3C2387.58 94.4309 2393.53 100.355 2393.53 107.679V271.313C2393.53 346.875 2333.51 406.945 2258 406.945C2184.25 406.945 2122.47 346.875 2122.47 271.313V107.679C2122.47 100.389 2128.39 94.4309 2135.71 94.4309H2181.24V94.4664Z" fill="#F7F7F9"/>
<path d="M1670.14 87.6676C1580.38 84.8293 1506 158.007 1506 247.272C1506 334.854 1578.28 406.945 1665.8 406.945C1696.48 406.945 1728.42 397.833 1751.11 382.413C1752.86 381.221 1755.25 382.447 1755.25 384.585V393.698C1755.25 401.022 1761.16 406.945 1768.48 406.945H1810.61C1817.93 406.945 1823.85 401.022 1823.82 393.698V248.148C1823.78 162.107 1756.09 90.3662 1670.14 87.6676ZM1666.01 336.571C1616.25 336.571 1576.78 297.074 1576.78 247.272C1576.78 197.47 1616.25 157.972 1666.01 157.972C1715.78 157.972 1755.21 197.47 1755.21 247.272C1755.21 297.074 1715.78 336.571 1666.01 336.571Z" fill="#F7F7F9"/>
<path d="M2460.17 407.045C2484.76 407.045 2505.84 387.698 2505.84 361.344C2505.84 336.74 2484.76 317.395 2460.17 317.395C2435.59 317.395 2414.51 336.74 2414.51 361.344C2414.51 387.698 2435.59 407.045 2460.17 407.045Z" fill="#F7F7F9"/>
<path d="M2397.14 867.42C2368.21 867.42 2342.81 860.188 2320.92 845.725C2299.03 831.262 2283 811.522 2272.84 786.505L2303.33 772.432C2313.1 791.586 2326.19 806.831 2342.61 818.167C2359.03 829.112 2377.2 834.585 2397.14 834.585C2417.47 834.585 2434.47 829.698 2448.15 819.926C2462.22 809.763 2469.26 796.472 2469.26 780.055C2469.26 769.892 2466.52 761.292 2461.05 754.256C2455.97 747.22 2449.32 741.552 2441.12 737.252C2432.91 732.561 2424.11 729.043 2414.73 726.698L2366.65 713.212C2339.68 705.785 2319.74 694.84 2306.84 680.377C2294.34 665.914 2288.08 648.91 2288.08 629.365C2288.08 611.775 2292.58 596.53 2301.57 583.63C2310.56 570.34 2322.68 560.177 2337.92 553.14C2353.16 545.714 2369.97 542 2388.35 542C2414.14 542 2437.6 548.645 2458.71 561.936C2479.81 575.226 2494.67 593.207 2503.27 615.879L2471.61 630.538C2463.4 612.947 2451.87 599.266 2437.01 589.494C2422.16 579.33 2405.74 574.249 2387.76 574.249C2369 574.249 2353.75 579.33 2342.02 589.494C2330.3 599.266 2324.43 611.775 2324.43 627.02C2324.43 636.792 2326.78 645.001 2331.47 651.646C2336.16 657.9 2342.22 663.177 2349.65 667.477C2357.46 671.386 2365.48 674.513 2373.69 676.859L2425.87 692.104C2451.28 699.14 2470.82 710.28 2484.51 725.525C2498.58 740.77 2505.61 758.751 2505.61 779.468C2505.61 796.277 2500.92 811.326 2491.54 824.617C2482.16 837.907 2469.26 848.461 2452.84 856.279C2436.43 863.706 2417.86 867.42 2397.14 867.42Z" fill="#F7F7F9"/>
<path d="M2074.51 867.42C2054.97 867.42 2037.57 863.706 2022.33 856.279C2007.08 848.852 1994.97 838.494 1985.98 825.203C1976.99 811.913 1972.49 796.668 1972.49 779.468C1972.49 764.224 1975.81 749.956 1982.46 736.666C1989.1 723.375 1999.85 712.039 2014.71 702.658C2029.56 692.885 2048.91 686.045 2072.75 682.136L2198.82 661.027V693.863L2082.14 713.212C2055.56 717.512 2036.79 725.525 2025.85 737.252C2014.9 748.979 2009.43 762.66 2009.43 778.296C2009.43 795.104 2015.68 808.786 2028.19 819.34C2041.09 829.894 2057.31 835.171 2076.86 835.171C2099.53 835.171 2119.27 830.089 2136.08 819.926C2152.89 809.372 2165.98 795.691 2175.36 778.882C2184.75 761.683 2189.44 742.92 2189.44 722.593V645.196C2189.44 624.479 2182.01 607.67 2167.16 594.771C2152.3 581.871 2132.95 575.421 2109.11 575.421C2089.56 575.421 2071.97 580.308 2056.34 590.08C2040.7 599.852 2028.78 612.556 2020.57 628.192L1988.91 611.188C1994.77 598.68 2003.76 587.148 2015.88 576.594C2028 566.04 2042.07 557.636 2058.1 551.381C2074.12 545.127 2091.13 542 2109.11 542C2131.78 542 2151.72 546.495 2168.91 555.486C2186.5 564.086 2200.19 576.203 2209.96 591.839C2219.73 607.084 2224.62 624.87 2224.62 645.196V860.384H2189.44V795.3L2193.54 798.231C2188.46 810.74 2180.06 822.271 2168.33 832.826C2156.6 842.989 2142.72 851.393 2126.7 858.038C2111.06 864.293 2093.67 867.42 2074.51 867.42Z" fill="#F7F7F9"/>
<path d="M1824.77 867.42C1795.84 867.42 1770.43 860.188 1748.54 845.725C1726.65 831.262 1710.63 811.522 1700.46 786.505L1730.95 772.432C1740.73 791.586 1753.82 806.831 1770.24 818.167C1786.66 829.112 1804.83 834.585 1824.77 834.585C1845.1 834.585 1862.1 829.698 1875.78 819.926C1889.85 809.763 1896.89 796.472 1896.89 780.055C1896.89 769.892 1894.15 761.292 1888.68 754.256C1883.6 747.22 1876.95 741.552 1868.74 737.252C1860.54 732.561 1851.74 729.043 1842.36 726.698L1794.28 713.212C1767.31 705.785 1747.37 694.84 1734.47 680.377C1721.96 665.914 1715.71 648.91 1715.71 629.365C1715.71 611.775 1720.2 596.53 1729.2 583.63C1738.19 570.34 1750.3 560.177 1765.55 553.14C1780.79 545.714 1797.6 542 1815.97 542C1841.77 542 1865.23 548.645 1886.34 561.936C1907.44 575.226 1922.3 593.207 1930.9 615.879L1899.23 630.538C1891.03 612.947 1879.49 599.266 1864.64 589.494C1849.79 579.33 1833.37 574.249 1815.39 574.249C1796.62 574.249 1781.38 579.33 1769.65 589.494C1757.93 599.266 1752.06 611.775 1752.06 627.02C1752.06 636.792 1754.41 645.001 1759.1 651.646C1763.79 657.9 1769.85 663.177 1777.28 667.477C1785.09 671.386 1793.11 674.513 1801.32 676.859L1853.5 692.104C1878.91 699.14 1898.45 710.28 1912.13 725.525C1926.21 740.77 1933.24 758.751 1933.24 779.468C1933.24 796.277 1928.55 811.326 1919.17 824.617C1909.79 837.907 1896.89 848.461 1880.47 856.279C1864.05 863.706 1845.49 867.42 1824.77 867.42Z" fill="#F7F7F9"/>
<path d="M1527.44 867.42C1498.12 867.42 1471.73 860.384 1448.28 846.311C1424.83 831.848 1406.26 812.304 1392.58 787.677C1378.9 762.66 1372.05 734.711 1372.05 703.83C1372.05 672.95 1378.7 645.392 1391.99 621.156C1405.28 596.53 1423.26 577.181 1445.93 563.108C1468.61 549.036 1494.01 542 1522.16 542C1543.66 542 1563.01 545.909 1580.21 553.727C1597.8 561.545 1612.85 572.49 1625.35 586.562C1638.25 600.243 1648.03 616.075 1654.67 634.056C1661.71 651.646 1665.23 670.213 1665.23 689.758C1665.23 693.667 1665.03 697.771 1664.64 702.071C1664.25 706.371 1663.66 710.866 1662.88 715.557H1392.58V683.308H1642.94L1627.11 695.622C1629.46 672.95 1626.14 652.623 1617.15 634.642C1608.16 616.27 1595.26 601.807 1578.45 591.253C1562.03 580.308 1543.27 574.835 1522.16 574.835C1501.05 574.835 1481.7 580.503 1464.11 591.839C1446.52 602.784 1432.64 618.029 1422.48 637.574C1412.32 656.728 1407.63 679.009 1408.41 704.417C1407.63 729.825 1412.51 752.301 1423.07 771.846C1433.62 791.391 1448.08 806.831 1466.46 818.167C1484.83 829.112 1505.15 834.585 1527.44 834.585C1550.11 834.585 1569.85 829.308 1586.66 818.753C1603.46 807.808 1617.15 793.345 1627.7 775.364L1657.6 791.195C1650.57 805.658 1640.6 818.753 1627.7 830.48C1614.8 841.816 1599.75 850.807 1582.55 857.452C1565.74 864.097 1547.37 867.42 1527.44 867.42Z" fill="#F7F7F9"/>
<path d="M1215.58 860.381V549.033H1250.76V607.081L1244.31 601.804C1250.96 584.214 1262.29 570.337 1278.32 560.174C1294.74 550.01 1314.09 544.929 1336.37 544.929H1356.3V580.109H1332.26C1306.85 580.109 1286.92 588.318 1272.46 604.736C1257.99 620.762 1250.76 642.457 1250.76 669.82V860.381H1215.58Z" fill="#F7F7F9"/>
<path d="M851.525 977.652V549.036H886.706V627.606L880.843 616.465C892.569 593.794 909.378 575.812 931.268 562.522C953.549 548.841 978.957 542 1007.49 542C1036.81 542 1063 549.036 1086.06 563.108C1109.12 577.181 1127.3 596.53 1140.59 621.156C1153.88 645.783 1160.53 673.731 1160.53 705.003C1160.53 735.493 1153.88 763.051 1140.59 787.677C1127.3 812.304 1109.12 831.848 1086.06 846.311C1063 860.384 1036.81 867.42 1007.49 867.42C978.957 867.42 953.354 860.579 930.682 846.898C908.401 832.826 891.788 813.672 880.843 789.436L886.706 781.228V977.652H851.525ZM1006.32 832.239C1028.6 832.239 1048.54 826.767 1066.13 815.822C1083.72 804.486 1097.59 789.241 1107.76 770.087C1117.92 750.542 1123 728.652 1123 704.417C1123 680.181 1117.92 658.487 1107.76 639.333C1097.59 620.179 1083.72 605.129 1066.13 594.184C1048.54 582.849 1028.6 577.181 1006.32 577.181C984.039 577.181 963.908 582.849 945.926 594.184C927.945 605.129 913.678 620.179 903.124 639.333C892.569 658.487 887.292 680.181 887.292 704.417C887.292 728.652 892.569 750.542 903.124 770.087C913.678 789.241 927.75 804.486 945.34 815.822C963.321 826.767 983.648 832.239 1006.32 832.239Z" fill="#F7F7F9"/>
<path d="M347.754 860.385V549.037H382.934V611.776L376.485 602.981C384.303 584.218 396.811 569.364 414.011 558.419C431.601 547.473 451.146 542.001 472.645 542.001C496.88 542.001 518.966 549.037 538.901 563.109C558.837 576.791 572.714 595.163 580.532 618.225L569.391 618.812C576.036 594.967 589.131 576.204 608.676 562.523C628.612 548.842 650.697 542.001 674.933 542.001C695.65 542.001 714.608 546.887 731.808 556.66C749.398 566.432 763.47 580.113 774.024 597.703C784.97 614.903 790.442 634.643 790.442 656.924V860.385H755.262V666.892C755.262 648.129 751.353 632.102 743.535 618.812C736.108 605.13 726.14 594.772 713.631 587.736C701.123 580.309 687.05 576.595 671.415 576.595C654.606 576.595 639.752 580.7 626.853 588.908C614.344 597.117 604.376 608.453 596.949 622.916C589.913 637.379 586.395 653.992 586.395 672.755V860.385H551.215V666.892C551.215 648.129 547.501 632.102 540.074 618.812C532.647 605.13 522.484 594.772 509.584 587.736C497.076 580.309 483.003 576.595 467.368 576.595C450.559 576.595 435.705 580.7 422.806 588.908C410.297 597.117 400.525 608.453 393.489 622.916C386.452 637.379 382.934 653.992 382.934 672.755V860.385H347.754Z" fill="#F7F7F9"/>
<path d="M155.381 867.421C126.064 867.421 99.6781 860.385 76.2245 846.312C52.7708 831.849 34.2033 812.305 20.522 787.678C6.84066 762.661 0 734.712 0 703.831C0 672.951 6.64521 645.393 19.9356 621.157C33.226 596.531 51.2072 577.182 73.8791 563.109C96.551 549.037 121.959 542.001 150.104 542.001C171.603 542.001 190.952 545.91 208.151 553.728C225.742 561.546 240.791 572.491 253.3 586.563C266.199 600.244 275.972 616.076 282.617 634.057C289.653 651.647 293.171 670.214 293.171 689.759C293.171 693.668 292.976 697.772 292.585 702.072C292.194 706.372 291.607 710.867 290.826 715.558H20.522V683.309H270.89L255.059 695.623C257.404 672.951 254.082 652.624 245.091 634.643C236.1 616.271 223.201 601.808 206.392 591.254C189.975 580.309 171.212 574.836 150.104 574.836C128.995 574.836 109.646 580.504 92.0557 591.84C74.4654 602.785 60.5887 618.03 50.4254 637.575C40.2622 656.729 35.5714 679.01 36.3532 704.418C35.5714 729.826 40.4576 752.302 51.0117 771.847C61.5659 791.392 76.029 806.832 94.4011 818.168C112.773 829.113 133.1 834.586 155.381 834.586C178.053 834.586 197.793 829.309 214.601 818.754C231.41 807.809 245.091 793.346 255.645 775.365L285.549 791.196C278.512 805.659 268.545 818.754 255.645 830.481C242.746 841.817 227.696 850.808 210.497 857.453C193.688 864.098 175.316 867.421 155.381 867.421Z" fill="#F7F7F9"/>
</svg>
