<svg width="1350" height="545" viewBox="0 0 1350 545" fill="none" xmlns="http://www.w3.org/2000/svg">
<path d="M577.034 0H517.829C507.975 0 499.986 7.92052 499.986 17.691V526.29C499.986 536.06 507.975 543.981 517.829 543.981H577.034C586.888 543.981 594.877 536.06 594.877 526.29V17.691C594.877 7.92052 586.888 0 577.034 0Z" fill="#2E2F3A"/>
<path d="M742.822 0H683.617C673.763 0 665.774 7.92052 665.774 17.691V526.29C665.774 536.06 673.763 543.981 683.617 543.981H742.822C752.676 543.981 760.665 536.06 760.665 526.29V17.691C760.665 7.92052 752.676 0 742.822 0Z" fill="#2E2F3A"/>
<path d="M911.074 126.348C920.934 126.348 928.917 134.263 928.917 144.039V365.075C928.917 413.26 968.289 452.275 1014.58 452.275C1063.2 452.275 1102.57 413.26 1102.57 365.075V144.039C1102.57 134.263 1110.56 126.348 1120.42 126.348H1179.62C1189.48 126.348 1197.47 134.263 1197.47 144.039V362.766C1197.47 463.777 1116.46 544.093 1014.58 544.093C915.054 544.093 831.697 463.777 831.697 362.766V144.039C831.697 134.263 839.68 126.348 849.54 126.348H911.074Z" fill="#2E2F3A"/>
<path d="M221.487 117.2C100.364 113.41 0 211.238 0 330.523C0 449.808 97.5367 543.981 215.608 543.981C257.015 543.981 300.073 531.783 330.716 511.2C333.09 509.608 336.279 511.267 336.279 514.114V526.29C336.279 536.066 344.262 543.981 354.122 543.981H410.952C420.812 543.981 428.795 536.066 428.795 526.29V337.406V331.711C428.795 216.686 337.432 120.81 221.487 117.177V117.2ZM215.902 449.898C148.759 449.898 95.524 397.094 95.524 330.523C95.524 263.952 148.759 211.17 215.902 211.17C283.044 211.17 336.279 263.974 336.279 330.523C336.279 397.071 283.044 449.898 215.902 449.898Z" fill="#2E2F3A"/>
<path d="M1287.45 543.981C1320.65 543.981 1349.07 518.128 1349.07 482.881C1349.07 449.988 1320.65 424.135 1287.45 424.135C1254.25 424.135 1225.82 449.988 1225.82 482.881C1225.82 518.128 1254.27 543.981 1287.45 543.981Z" fill="#27AE60"/>
</svg>
